<?xml version="1.0" encoding="utf-8"?>
<!-- Generator: Adobe Illustrator 16.0.0, SVG Export Plug-In . SVG Version: 6.00 Build 0)  -->
<!DOCTYPE svg PUBLIC "-//W3C//DTD SVG 1.1//EN" "http://www.w3.org/Graphics/SVG/1.1/DTD/svg11.dtd">
<svg version="1.1" id="Layer_1" xmlns="http://www.w3.org/2000/svg" xmlns:xlink="http://www.w3.org/1999/xlink" x="0px" y="0px"
	 width="700px" height="250px" viewBox="0 0 700 250" enable-background="new 0 0 700 250" xml:space="preserve">
<g id="neverfold_-_colored">
	<g>
		<path fill="#4F4F4F" d="M579.229,155.594c0,2.045-0.041,4.447,0.146,6.465c0.368,3.817,1.528,6.688,3.518,8.567
			c1.993,1.888,4.896,2.847,8.743,2.847c1.966,0,4.216-0.453,6.271-1.091c2.096-0.651,3.954-1.476,5.113-2.202v-28.863
			c-1.3-0.646-3.236-1.383-5.502-1.946c-2.071-0.513-4.405-0.875-6.759-0.875c-3.769,0-6.493,0.948-8.306,2.762
			c-1.809,1.808-2.79,4.535-3.069,8.093C579.22,151.389,579.229,153.55,579.229,155.594L579.229,155.594z M568.473,155.873
			c0-2.439,0.037-4.932,0.258-7.367c0.571-6.291,2.757-11.33,6.438-14.812c3.693-3.498,8.832-5.394,15.302-5.394
			c2.455,0,4.925,0.331,7.234,0.843c1.92,0.43,3.723,0.983,5.315,1.58v-14.189c0-1.49,0.587-2.854,1.531-3.847
			c0.96-1.011,2.292-1.639,3.76-1.639c1.543,0,2.875,0.609,3.839,1.592c0.979,1.002,1.552,2.385,1.552,3.894v56.707
			c0,0.875-0.104,1.619-0.452,2.352c-0.41,0.861-1.062,1.473-1.826,2.018c-1.5,1.052-5.109,3.05-9.712,4.451
			c-3.052,0.926-6.545,1.606-10.174,1.606c-6.708,0-12.084-1.989-15.959-5.528c-3.95-3.607-6.294-8.791-6.857-15.093
			C568.51,160.68,568.473,158.253,568.473,155.873L568.473,155.873z"/>
	</g>
	<g>
		<path fill="#4F4F4F" d="M553.25,112.713c0.95-0.978,2.269-1.568,3.771-1.568c1.464,0,2.828,0.6,3.812,1.588
			c0.97,0.969,1.579,2.301,1.579,3.8v61.162c0,1.552-0.563,2.916-1.527,3.908c-0.969,0.986-2.311,1.578-3.861,1.578
			c-1.473,0-2.813-0.609-3.782-1.625c-0.933-0.979-1.509-2.328-1.509-3.861v-61.162C551.731,115.033,552.3,113.687,553.25,112.713
			L553.25,112.713z"/>
	</g>
	<g>
		<path fill="#4F4F4F" d="M531.37,141.507c-2.102-1.896-5.04-3.013-8.66-3.013c-3.614,0-6.559,1.117-8.659,3.013
			c-2.171,1.951-3.466,4.761-3.693,8.033c-0.141,2.081-0.146,4.247-0.146,6.333c0,2.012-0.021,4.252,0.14,6.25
			c0.322,3.432,1.669,6.296,3.82,8.284c2.11,1.942,5.026,3.063,8.538,3.063c3.519,0,6.435-1.121,8.544-3.063
			c2.151-1.988,3.498-4.853,3.814-8.284c0.163-2.003,0.14-4.232,0.14-6.25c0-2.076-0.004-4.242-0.14-6.311
			C534.84,146.279,533.545,143.463,531.37,141.507L531.37,141.507z M506.704,134.037c4.091-3.628,9.671-5.737,16.006-5.737
			c6.373,0,11.944,2.101,16.021,5.72c4.069,3.617,6.638,8.73,7.01,14.763c0.145,2.36,0.224,4.675,0.224,7.046
			c0,2.347-0.083,4.624-0.224,6.962c-0.372,6.06-2.958,11.293-7.062,15.009c-4.07,3.688-9.619,5.868-15.969,5.868
			c-6.312,0-11.869-2.188-15.954-5.892c-4.095-3.707-6.693-8.918-7.071-14.948c-0.14-2.306-0.157-4.688-0.157-6.999
			c0-2.334,0.014-4.75,0.157-7.079C500.062,142.746,502.638,137.65,506.704,134.037L506.704,134.037z"/>
	</g>
	<g>
		<path fill="#4F4F4F" d="M469.205,130.629h1.979v-3.046c0-5.234,1.481-9.593,4.411-12.64c2.813-2.919,6.899-4.577,12.225-4.577
			c1.677,0,3.33,0.116,4.812,0.303c1.631,0.2,3.065,0.493,4.104,0.819c1.206,0.368,2.234,0.834,3.06,1.835
			c0.729,0.886,1.076,1.961,1.076,3.209c0,1.257-0.493,2.608-1.546,3.581c-0.862,0.791-2.068,1.322-3.652,1.322
			c-1.076,0-2.134-0.186-3.298-0.391c-1.286-0.229-2.716-0.48-4.36-0.48c-2.101,0-3.601,0.625-4.564,1.77
			c-1.076,1.285-1.583,3.273-1.583,5.831v2.464h12.162c1.396,0,2.702,0.544,3.651,1.443c0.945,0.897,1.542,2.142,1.542,3.553
			c0,1.416-0.597,2.659-1.542,3.555c-0.949,0.902-2.255,1.447-3.651,1.447h-12.162v37.068c0,1.537-0.561,2.9-1.496,3.884
			c-0.955,1.001-2.282,1.603-3.796,1.603c-1.516,0-2.865-0.602-3.848-1.603c-0.961-0.981-1.543-2.343-1.543-3.884v-37.068h-1.979
			c-1.396,0-2.701-0.545-3.651-1.447c-0.949-0.896-1.547-2.139-1.547-3.555c0-1.411,0.598-2.654,1.547-3.553
			C466.504,131.173,467.809,130.629,469.205,130.629L469.205,130.629z"/>
	</g>
	<g>
		<path fill="#4F4F4F" d="M451.238,128.607c1.617,0.205,3.033,0.488,4.053,0.806c1.249,0.387,2.278,0.796,3.126,1.854
			c0.718,0.89,1.029,1.959,1.029,3.198c0,1.201-0.503,2.617-1.606,3.638c-0.871,0.806-2.092,1.363-3.685,1.363
			c-0.918,0-1.893-0.158-2.996-0.33c-1.295-0.205-2.795-0.441-4.63-0.447c-1.72,0-3.74,0.369-4.947,1.715
			c-1.039,1.15-1.527,2.998-1.527,5.598v31.792c0,1.505-0.592,2.851-1.564,3.823c-0.975,0.974-2.32,1.564-3.824,1.564
			c-1.463,0-2.828-0.602-3.811-1.588c-0.97-0.969-1.579-2.306-1.579-3.801v-32.668c0-5.188,1.584-9.421,4.602-12.363
			c2.944-2.873,7.197-4.462,12.615-4.462C448.099,128.3,449.739,128.416,451.238,128.607L451.238,128.607z"/>
	</g>
	<g>
		<path fill="#4F4F4F" d="M391.346,141.968c-1.916,2.23-2.927,5.411-3.02,9.306h24.246c0.187-3.404-0.55-6.916-2.885-9.51
			c-2.271-2.529-5.486-3.559-8.809-3.559C397.293,138.205,393.762,139.146,391.346,141.968L391.346,141.968z M416.876,134.489
			c3.96,3.995,6.168,9.653,6.168,16.262v2.905c0,2.133-0.601,3.922-1.896,5.193c-1.197,1.178-2.927,1.844-5.241,1.844h-27.576
			c0,3.529,0.871,6.984,3.451,9.526c2.278,2.25,5.607,3.441,9.582,3.441c3.787,0,7.798-1.169,11.343-2.431
			c0.867-0.299,1.584-0.504,2.511-0.504c2.092,0,3.908,1.17,4.673,3.131c1.024,2.631-0.205,5.028-2.437,6.473
			c-3.489,2.324-12,3.335-16.188,3.335c-6.945,0-12.535-2.175-16.531-5.957c-6.572-6.226-7.09-14.231-7.021-22.638
			c0.063-7.896,1.122-15.213,7.243-20.94c4.023-3.769,9.488-5.831,15.824-5.831C407.499,128.3,413.006,130.587,416.876,134.489
			L416.876,134.489z"/>
	</g>
	<g>
		<path fill="#4F4F4F" d="M294.121,141.968c-1.91,2.23-2.925,5.411-3.014,9.306h24.241c0.191-3.404-0.545-6.916-2.878-9.51
			c-2.273-2.529-5.492-3.559-8.813-3.559C300.069,138.205,296.538,139.146,294.121,141.968L294.121,141.968z M319.652,134.489
			c3.959,3.995,6.172,9.653,6.172,16.262v2.905c0,2.133-0.605,3.922-1.896,5.193c-1.202,1.178-2.93,1.844-5.24,1.844h-27.577
			c0,3.529,0.867,6.984,3.447,9.526c2.282,2.25,5.608,3.441,9.586,3.441c3.788,0,7.798-1.169,11.343-2.431
			c0.861-0.299,1.584-0.504,2.511-0.504c2.087,0,3.908,1.17,4.667,3.131c1.025,2.631-0.205,5.028-2.436,6.473
			c-3.484,2.324-11.995,3.335-16.183,3.335c-6.945,0-12.535-2.175-16.532-5.957c-6.577-6.226-7.09-14.231-7.02-22.638
			c0.065-7.896,1.123-15.213,7.244-20.94c4.02-3.769,9.484-5.831,15.824-5.831C310.28,128.3,315.786,130.587,319.652,134.489
			L319.652,134.489z"/>
	</g>
	<g>
		<path fill="#4F4F4F" d="M367.229,130.2c0.896-0.714,1.972-1.122,3.195-1.122c0.657,0,1.286,0.115,1.868,0.33
			c1.058,0.387,1.942,1.095,2.562,2.003c0.61,0.903,0.965,1.993,0.965,3.157c0,0.685-0.121,1.396-0.387,2.108l-14.842,39.695
			c-0.857,2.254-2.04,3.968-3.498,5.142c-1.542,1.238-3.35,1.862-5.386,1.862c-1.984,0-3.744-0.624-5.235-1.854
			c-1.416-1.164-2.548-2.858-3.363-5.07l-15.022-39.858c-0.289-0.735-0.424-1.462-0.424-2.155c0-1.113,0.34-2.151,0.936-3.014
			c0.592-0.855,1.43-1.531,2.437-1.933c0.661-0.271,1.388-0.414,2.157-0.414c1.108,0,2.114,0.391,2.948,1.024
			c0.871,0.655,1.552,1.582,1.947,2.574l0.052,0.135l13.662,37.727l13.393-37.357C365.523,132.096,366.35,130.908,367.229,130.2
			L367.229,130.2z"/>
	</g>
	<g>
		<path fill="#4F4F4F" d="M268.943,133.768c3.796,3.633,5.734,8.94,5.734,15.722v28.206c0,1.547-0.541,2.916-1.481,3.908
			c-0.941,0.986-2.254,1.578-3.811,1.578c-1.472,0-2.841-0.609-3.833-1.63c-0.955-0.979-1.556-2.323-1.556-3.856v-27.819
			c0-3.748-1.146-6.459-2.991-8.261c-2.124-2.072-5.217-3.022-8.589-3.022c-2.39,0-4.747,0.33-6.834,0.829
			c-2.045,0.488-3.833,1.137-5.128,1.793v36.48c0,1.537-0.564,2.902-1.5,3.885c-0.955,1.001-2.283,1.604-3.797,1.604
			c-1.467,0-2.836-0.611-3.833-1.631c-0.955-0.979-1.556-2.324-1.556-3.855v-39.258c0-1.107,0.205-1.975,0.61-2.733
			c0.401-0.754,0.964-1.327,1.705-1.881c1.682-1.263,4.858-2.931,9.233-4.095c3.158-0.838,6.959-1.43,11.296-1.43
			C259.733,128.3,265.207,130.188,268.943,133.768L268.943,133.768z"/>
	</g>
	<g>
		<path fill="#49A9DF" d="M104.376,76.469l41.114-9.64c2.162-0.503,4.323,0.839,4.826,2.999c0.34,1.457-0.159,2.91-1.183,3.861
			c-4.854,5.043-8.399,11.236-10.276,17.998c-1.826,6.58-2.068,13.71-0.391,20.85c1.672,7.134,5.059,13.411,9.619,18.486
			c4.724,5.268,10.732,9.264,17.413,11.619c2.091,0.735,3.186,3.026,2.45,5.117c-0.475,1.342-1.588,2.277-2.874,2.575v0.005
			l-41.119,9.641c-0.824,0.19-1.649,0.115-2.38-0.172c-7.868-2.8-14.962-7.545-20.58-13.804
			c-5.445-6.063-9.484-13.532-11.473-22.009c-1.984-8.466-1.691-16.951,0.489-24.803c2.259-8.136,6.54-15.577,12.4-21.608
			c0.559-0.572,1.244-0.945,1.965-1.112V76.469L104.376,76.469z"/>
	</g>
	<g>
		<path fill="#49A9DF" d="M153.805,86.155c-0.722,0.167-1.407,0.54-1.966,1.112c-4.271,4.396-7.705,9.543-10.127,15.158
			c-0.033,2.977,0.298,6.031,1.021,9.114c0.736,3.139,1.849,6.101,3.279,8.848c1.481,2.854,3.279,5.439,5.329,7.722
			c2.105,2.347,4.509,4.418,7.141,6.175c2.608,1.737,5.455,3.161,8.473,4.224c2.175,0.77,3.843,2.356,4.77,4.299
			c0.932,1.946,1.123,4.237,0.354,6.412c-0.48,1.364-1.295,2.533-2.32,3.455c-0.959,0.857-2.096,1.485-3.303,1.83
			c-0.2,0.064-0.405,0.121-0.615,0.158l-13.402,3.139c5.259,5.217,11.608,9.213,18.563,11.689c0.736,0.287,1.556,0.363,2.38,0.172
			l41.119-9.645c1.29-0.299,2.403-1.233,2.874-2.576c0.741-2.09-0.359-4.381-2.45-5.116c-6.68-2.356-12.685-6.353-17.413-11.619
			c-4.561-5.076-7.947-11.354-9.619-18.487c-1.677-7.14-1.43-14.27,0.396-20.85c1.873-6.762,5.422-12.955,10.271-17.998
			c1.024-0.951,1.523-2.404,1.183-3.861c-0.503-2.16-2.66-3.502-4.821-2.999l-41.119,9.64v0.004H153.805z"/>
	</g>
</g>
</svg>
